<svg width="241" height="982" viewBox="0 0 241 982" fill="none" xmlns="http://www.w3.org/2000/svg">
<path d="M70.0805 581.5C55.6311 581.5 45.5805 568 32.5805 568C19.5801 568 23.5805 581.5 23.5805 581.5C23.5805 581.5 46.6311 596 61.0805 596C74.3583 596 85.7116 587.883 102.08 587C107.54 586.706 116.08 587 116.08 587V572.5C116.08 572.5 107.53 572.058 102.08 572.5C89.1414 573.55 83.3583 581.5 70.0805 581.5Z" fill="#5F8550"/>
<rect x="96" width="145" height="982" fill="#B4A36A"/>
<path d="M163.999 604L109.124 691.5L147.033 751L95.998 800.5V793.5L125.727 751L96.498 691.5L163.999 604Z" fill="#A59663"/>
<path d="M105.999 193.533L207.611 220.76L215.735 292.805L341.722 293.974L341.618 286.081L231.746 278.748L217.099 212.43L105.999 193.533Z" fill="#A59663"/>
<path d="M309.004 406L315.423 427.043C315.423 427.043 298.202 465.114 266.705 478C250.178 484.762 202.639 512.639 172.205 518C141.772 523.361 101.726 510.127 80.2051 518C54.528 527.394 41.0096 555.614 34.4915 575.396C32.8607 580.345 24.5128 580.619 22.9923 575.634C22.8553 575.185 22.7832 574.727 22.7904 574.258C22.8936 567.609 25.0044 515.47 65.7051 500.5C87.0009 492.667 143.429 500.99 172.205 497C210.316 491.715 246.285 466.845 261.705 460.5C294.88 446.85 309.004 406 309.004 406Z" fill="#5F8550"/>
<path d="M229.213 501.257C227.807 500.98 226.262 501.073 224.766 501.52C223.576 501.875 222.42 502.477 221.394 503.308C221.314 503.182 221.22 503.063 221.147 502.933C218.115 497.518 211.39 497.118 207.654 500.231C207.073 500.537 206.627 501.09 206.482 501.782C206.225 503.013 207.014 504.219 208.245 504.476C209.476 504.733 210.685 503.945 210.942 502.714C211.118 501.873 210.803 501.045 210.195 500.522C213.262 499.149 217.586 499.849 219.751 503.716C219.893 503.968 220.044 504.212 220.204 504.45C218.909 505.928 217.987 507.885 217.765 510.305C217.03 508.692 215.594 507.402 213.63 507.036C212.595 506.844 211.415 506.906 210.112 507.312C204.462 509.074 205.176 515.333 195.444 513.315C198.893 516.57 202.687 518.475 206.186 519.219C203.715 524.941 206.136 533.397 214.776 539.555C211.824 530.518 218.555 529.104 221.797 524.75C226.692 526.609 231.665 521.572 232.121 531.586C237.137 519.163 228.696 511.596 222.548 511.051C221.309 510.941 220.216 511.26 219.32 511.871C219.213 509.184 219.977 507.148 221.188 505.68C223.128 507.828 225.816 509.234 228.24 509.731C229.79 510.049 231.257 510.02 232.408 509.4C233.56 508.779 234.224 507.428 233.975 505.827C233.66 503.806 232.288 502.358 230.564 501.657C230.133 501.482 229.681 501.35 229.213 501.257L229.213 501.257ZM228.903 502.83C229.278 502.902 229.632 503.008 229.961 503.141C231.278 503.676 232.165 504.609 232.393 506.073C232.57 507.209 232.278 507.652 231.648 507.992C231.018 508.332 229.878 508.434 228.559 508.164C226.479 507.737 224.036 506.426 222.338 504.549C223.211 503.852 224.203 503.357 225.222 503.053C226.482 502.676 227.779 502.612 228.903 502.83ZM214.867 511.118C215.402 511.235 215.968 511.431 216.571 511.717C210.264 511.691 207.765 518.577 201.299 515.678C207.365 516.077 209.697 509.986 214.867 511.118L214.867 511.118ZM217.375 513.348C219.853 523.49 209.013 525.246 212.03 534.756C206.563 525.405 216.4 523.54 217.375 513.348L217.375 513.348ZM219.394 514.111C222.126 518.735 230.792 515.529 231.568 524.526C229.139 517.76 220.949 520.35 219.394 514.111Z" fill="#5F8550"/>
</svg>
